<svg width="164" height="47" viewBox="0 0 164 47" fill="none" xmlns="http://www.w3.org/2000/svg">
<g clip-path="url(#clip0_0_4680)">
<path d="M39.0121 23.4565L32.8582 29.6797C31.933 30.6153 31.933 32.1602 32.8582 33.0958L38.3881 38.688C38.7324 39.0361 38.7324 39.6236 38.3881 39.9718L31.8039 46.6301C31.4596 46.9783 30.8787 46.9783 30.5344 46.6301L24.1869 40.2111C23.6274 39.6454 23.3047 38.8838 23.3047 38.0787V23.4565L31.1584 15.5144L38.3666 8.20325C38.7109 7.8551 39.2918 7.8551 39.6361 8.20325L46.2203 14.8616C46.5646 15.2098 46.5646 15.7972 46.2203 16.1454L39.0121 23.4565Z" fill="#080807" style="fill:#080807;fill:color(display-p3 0.0314 0.0314 0.0275);fill-opacity:1;"/>
<path d="M23.3027 8.81251V23.4347L15.449 31.3769L8.24083 38.688C7.89655 39.0361 7.31559 39.0361 6.97132 38.688L0.387111 32.0296C0.0428381 31.6815 0.0428381 31.094 0.387111 30.7459L7.59532 23.4347L13.7492 17.2116C14.6744 16.2759 14.6744 14.731 13.7492 13.7954L8.21929 8.20324C7.87502 7.85509 7.87502 7.26761 8.21929 6.91947L14.8035 0.261111C15.1478 -0.087037 15.7287 -0.087037 16.073 0.261111L22.4205 6.68009C22.98 7.24583 23.3027 8.00742 23.3027 8.81251Z" fill="#080807" style="fill:#080807;fill:color(display-p3 0.0314 0.0314 0.0275);fill-opacity:1;"/>
<path d="M66.4964 37.985C63.5937 37.985 61.1057 36.9628 59.0582 34.9186C57.0108 32.8743 56 30.3844 56 27.3966C56 24.435 57.0108 21.919 59.0582 19.8747C61.1057 17.8304 63.5678 16.8345 66.4964 16.8345C69.425 16.8345 71.9131 17.8566 73.9346 19.8747C75.9561 21.919 76.9669 24.4088 76.9669 27.3966C76.9669 30.3582 75.9561 32.8743 73.9346 34.9186C71.9131 36.9628 69.4509 37.985 66.4964 37.985ZM62.0905 31.9569C63.2827 33.1625 64.76 33.7654 66.4964 33.7654C68.2328 33.7654 69.7101 33.1625 70.9023 31.9569C72.0945 30.7513 72.6906 29.2312 72.6906 27.4228C72.6906 25.6144 72.0945 24.0943 70.9023 22.8887C69.7101 21.6831 68.2328 21.0803 66.4964 21.0803C64.76 21.0803 63.2827 21.6831 62.0905 22.8887C60.8983 24.0943 60.3022 25.6144 60.3022 27.4228C60.3022 29.2312 60.8983 30.7513 62.0905 31.9569Z" fill="#080807" style="fill:#080807;fill:color(display-p3 0.0314 0.0314 0.0275);fill-opacity:1;"/>
<path d="M89.5882 16.8607C91.8689 16.8607 93.709 17.5946 95.1085 19.0623C96.5081 20.53 97.2078 22.548 97.2078 25.1165V37.4608H92.9056V25.5621C92.9056 24.0682 92.5168 22.915 91.7134 22.1025C90.91 21.29 89.8215 20.8969 88.4479 20.8969C86.9447 20.8969 85.7266 21.3686 84.7935 22.3122C83.8605 23.2557 83.3941 24.7234 83.3941 26.6628V37.4346H79.0918V17.3587H83.3941V19.9272C84.7158 17.8829 86.7632 16.8607 89.5882 16.8607Z" fill="#080807" style="fill:#080807;fill:color(display-p3 0.0314 0.0314 0.0275);fill-opacity:1;"/>
<path d="M103.843 29.2575C104.154 30.7776 104.879 31.957 106.02 32.7695C107.16 33.582 108.559 34.0013 110.192 34.0013C112.473 34.0013 114.183 33.1626 115.324 31.5115L118.849 33.6082C116.879 36.5173 113.976 37.985 110.14 37.985C106.901 37.985 104.309 36.9891 102.313 34.9972C100.318 33.0054 99.333 30.4893 99.333 27.4229C99.333 24.4351 100.318 21.919 102.262 19.9009C104.231 17.8829 106.745 16.8607 109.803 16.8607C112.706 16.8607 115.116 17.8829 116.982 19.9534C118.849 22.0239 119.782 24.5137 119.782 27.4753C119.782 27.9208 119.73 28.5236 119.626 29.2837H103.843V29.2575ZM103.817 25.7193H115.505C115.22 24.0944 114.546 22.8626 113.51 22.0239C112.473 21.1852 111.229 20.7658 109.829 20.7658C108.248 20.7658 106.927 21.2114 105.864 22.1025C104.776 22.9936 104.102 24.1992 103.817 25.7193Z" fill="#080807" style="fill:#080807;fill:color(display-p3 0.0314 0.0314 0.0275);fill-opacity:1;"/>
<path d="M133.207 16.8607C135.928 16.8607 138.261 17.8828 140.205 19.9009C142.148 21.9452 143.107 24.435 143.107 27.4228C143.107 30.3582 142.148 32.8743 140.205 34.9185C138.261 36.9628 135.928 37.985 133.207 37.985C130.175 37.985 127.868 36.858 126.261 34.5778V37.4608H121.959V9.33875H126.261V20.2154C127.868 17.9877 130.175 16.8607 133.207 16.8607ZM128.049 32.0094C129.242 33.2412 130.745 33.844 132.533 33.844C134.321 33.844 135.825 33.2412 137.017 32.0094C138.209 30.8038 138.805 29.2574 138.805 27.3966C138.805 25.5358 138.209 24.0157 137.017 22.7838C135.825 21.5782 134.321 20.9492 132.533 20.9492C130.719 20.9492 129.242 21.552 128.049 22.7838C126.857 24.0157 126.261 25.5358 126.261 27.3966C126.261 29.2574 126.857 30.8038 128.049 32.0094Z" fill="#080807" style="fill:#080807;fill:color(display-p3 0.0314 0.0314 0.0275);fill-opacity:1;"/>
<path d="M149.301 13.5322C148.757 14.0826 148.109 14.3447 147.383 14.3447C146.632 14.3447 146.01 14.0826 145.466 13.5322C144.921 12.9818 144.662 12.3266 144.662 11.5927C144.662 10.8327 144.921 10.2037 145.466 9.65329C145.984 9.1029 146.632 8.84082 147.409 8.84082C148.187 8.84082 148.835 9.1029 149.353 9.65329C149.871 10.2037 150.157 10.8589 150.157 11.5927C150.131 12.3266 149.846 12.9818 149.301 13.5322ZM145.232 37.4608V17.3849H149.535V37.4608H145.232Z" fill="#080807" style="fill:#080807;fill:color(display-p3 0.0314 0.0314 0.0275);fill-opacity:1;"/>
<path d="M163.038 21.5521H158.114V31.197C158.114 32.0356 158.295 32.6122 158.658 32.9791C159.021 33.3461 159.565 33.5295 160.316 33.582C161.042 33.6344 161.949 33.6082 163.038 33.5558V37.4608C159.746 37.854 157.388 37.5657 155.962 36.596C154.537 35.6262 153.811 33.8178 153.811 31.197V21.5521H151.66V17.3849H153.811V13.0342L158.114 11.75V17.3849H163.038V21.5521Z" fill="#080807" style="fill:#080807;fill:color(display-p3 0.0314 0.0314 0.0275);fill-opacity:1;"/>
</g>
<defs>
<clipPath id="clip0_0_4680">
<rect width="164" height="47" fill="white" style="fill:white;fill-opacity:1;"/>
</clipPath>
</defs>
</svg>
