<svg width="164" height="47" viewBox="0 0 164 47" fill="none" xmlns="http://www.w3.org/2000/svg">
<g clip-path="url(#clip0_52_1659)">
<path d="M39.0121 23.4565L32.8582 29.6797C31.933 30.6153 31.933 32.1602 32.8582 33.0958L38.3881 38.688C38.7324 39.0361 38.7324 39.6236 38.3881 39.9718L31.8039 46.6301C31.4596 46.9783 30.8787 46.9783 30.5344 46.6301L24.1869 40.2111C23.6274 39.6454 23.3047 38.8838 23.3047 38.0787V23.4565L31.1584 15.5144L38.3666 8.20325C38.7109 7.8551 39.2918 7.8551 39.6361 8.20325L46.2203 14.8616C46.5646 15.2098 46.5646 15.7972 46.2203 16.1454L39.0121 23.4565Z" fill="#8DF31E" style="fill:#8DF31E;fill:color(display-p3 0.5529 0.9529 0.1176);fill-opacity:1;"/>
<path d="M23.3027 8.81251V23.4347L15.449 31.3769L8.24083 38.688C7.89655 39.0361 7.31559 39.0361 6.97132 38.688L0.387111 32.0296C0.0428381 31.6815 0.0428381 31.094 0.387111 30.7459L7.59532 23.4347L13.7492 17.2116C14.6744 16.2759 14.6744 14.731 13.7492 13.7954L8.21929 8.20324C7.87502 7.85509 7.87502 7.26761 8.21929 6.91947L14.8035 0.261111C15.1478 -0.087037 15.7287 -0.087037 16.073 0.261111L22.4205 6.68009C22.98 7.24583 23.3027 8.00742 23.3027 8.81251Z" fill="#8DF31E" style="fill:#8DF31E;fill:color(display-p3 0.5529 0.9529 0.1176);fill-opacity:1;"/>
<path d="M66.4964 37.985C63.5937 37.985 61.1057 36.9628 59.0582 34.9186C57.0108 32.8743 56 30.3844 56 27.3966C56 24.435 57.0108 21.919 59.0582 19.8747C61.1057 17.8304 63.5678 16.8345 66.4964 16.8345C69.425 16.8345 71.9131 17.8566 73.9346 19.8747C75.9561 21.919 76.9669 24.4088 76.9669 27.3966C76.9669 30.3582 75.9561 32.8743 73.9346 34.9186C71.9131 36.9628 69.4509 37.985 66.4964 37.985ZM62.0905 31.9569C63.2827 33.1625 64.76 33.7654 66.4964 33.7654C68.2328 33.7654 69.7101 33.1625 70.9023 31.9569C72.0945 30.7513 72.6906 29.2312 72.6906 27.4228C72.6906 25.6144 72.0945 24.0943 70.9023 22.8887C69.7101 21.6831 68.2328 21.0803 66.4964 21.0803C64.76 21.0803 63.2827 21.6831 62.0905 22.8887C60.8983 24.0943 60.3022 25.6144 60.3022 27.4228C60.3022 29.2312 60.8983 30.7513 62.0905 31.9569Z" fill="white" style="fill:white;fill-opacity:1;"/>
<path d="M89.5902 16.8607C91.8709 16.8607 93.711 17.5946 95.1105 19.0623C96.51 20.53 97.2098 22.548 97.2098 25.1165V37.4608H92.9076V25.5621C92.9076 24.0682 92.5188 22.915 91.7154 22.1025C90.9119 21.29 89.8234 20.8969 88.4498 20.8969C86.9466 20.8969 85.7285 21.3686 84.7955 22.3122C83.8625 23.2557 83.396 24.7234 83.396 26.6628V37.4346H79.0938V17.3587H83.396V19.9272C84.7178 17.8829 86.7652 16.8607 89.5902 16.8607Z" fill="white" style="fill:white;fill-opacity:1;"/>
<path d="M103.842 29.2575C104.153 30.7776 104.878 31.957 106.019 32.7695C107.159 33.582 108.558 34.0013 110.191 34.0013C112.472 34.0013 114.182 33.1626 115.323 31.5115L118.848 33.6082C116.878 36.5173 113.975 37.985 110.139 37.985C106.9 37.985 104.308 36.9891 102.312 34.9972C100.317 33.0054 99.332 30.4893 99.332 27.4229C99.332 24.4351 100.317 21.919 102.261 19.9009C104.23 17.8829 106.744 16.8607 109.802 16.8607C112.705 16.8607 115.115 17.8829 116.982 19.9534C118.848 22.0239 119.781 24.5137 119.781 27.4753C119.781 27.9208 119.729 28.5236 119.625 29.2837H103.842V29.2575ZM103.816 25.7193H115.504C115.219 24.0944 114.545 22.8626 113.509 22.0239C112.472 21.1852 111.228 20.7658 109.828 20.7658C108.247 20.7658 106.926 21.2114 105.863 22.1025C104.775 22.9936 104.101 24.1992 103.816 25.7193Z" fill="white" style="fill:white;fill-opacity:1;"/>
<path d="M133.205 16.8607C135.926 16.8607 138.259 17.8828 140.203 19.9009C142.146 21.9452 143.105 24.435 143.105 27.4228C143.105 30.3582 142.146 32.8743 140.203 34.9185C138.259 36.9628 135.926 37.985 133.205 37.985C130.173 37.985 127.866 36.858 126.259 34.5778V37.4608H121.957V9.33875H126.259V20.2154C127.866 17.9877 130.173 16.8607 133.205 16.8607ZM128.048 32.0094C129.24 33.2412 130.743 33.844 132.531 33.844C134.319 33.844 135.823 33.2412 137.015 32.0094C138.207 30.8038 138.803 29.2574 138.803 27.3966C138.803 25.5358 138.207 24.0157 137.015 22.7838C135.823 21.5782 134.319 20.9492 132.531 20.9492C130.717 20.9492 129.24 21.552 128.048 22.7838C126.855 24.0157 126.259 25.5358 126.259 27.3966C126.259 29.2574 126.855 30.8038 128.048 32.0094Z" fill="white" style="fill:white;fill-opacity:1;"/>
<path d="M149.303 13.5322C148.759 14.0826 148.111 14.3447 147.385 14.3447C146.634 14.3447 146.012 14.0826 145.468 13.5322C144.923 12.9818 144.664 12.3266 144.664 11.5927C144.664 10.8327 144.923 10.2037 145.468 9.65329C145.986 9.1029 146.634 8.84082 147.411 8.84082C148.189 8.84082 148.837 9.1029 149.355 9.65329C149.873 10.2037 150.158 10.8589 150.158 11.5927C150.133 12.3266 149.848 12.9818 149.303 13.5322ZM145.234 37.4608V17.3849H149.536V37.4608H145.234Z" fill="white" style="fill:white;fill-opacity:1;"/>
<path d="M163.038 21.5521H158.114V31.197C158.114 32.0356 158.295 32.6122 158.658 32.9791C159.021 33.3461 159.565 33.5295 160.316 33.582C161.042 33.6344 161.949 33.6082 163.038 33.5558V37.4608C159.746 37.854 157.388 37.5657 155.962 36.596C154.537 35.6262 153.811 33.8178 153.811 31.197V21.5521H151.66V17.3849H153.811V13.0342L158.114 11.75V17.3849H163.038V21.5521Z" fill="white" style="fill:white;fill-opacity:1;"/>
</g>
<defs>
<clipPath id="clip0_52_1659">
<rect width="164" height="47" fill="white" style="fill:white;fill-opacity:1;"/>
</clipPath>
</defs>
</svg>
