<svg width="200" height="58" viewBox="0 0 200 58" fill="none" xmlns="http://www.w3.org/2000/svg">
<g clip-path="url(#clip0_0_1547)">
<path d="M47.733 29.0135L40.1779 36.711C39.0421 37.8683 39.0421 39.7792 40.1779 40.9365L46.9669 47.8534C47.3896 48.2841 47.3896 49.0107 46.9669 49.4413L38.8836 57.6771C38.4609 58.1077 37.7477 58.1077 37.325 57.6771L29.5323 49.7374C28.8455 49.0377 28.4492 48.0956 28.4492 47.0998V29.0135L38.0911 19.1899L46.9405 10.1467C47.3632 9.71607 48.0764 9.71607 48.499 10.1467L56.5824 18.3825C57.005 18.8131 57.005 19.5397 56.5824 19.9704L47.733 29.0135Z" fill="#8DF31E" style="fill:#8DF31E;fill:color(display-p3 0.5529 0.9529 0.1176);fill-opacity:1;"/>
<path d="M28.4502 10.9002V28.9865L18.8083 38.8102L9.95888 47.8534C9.53622 48.284 8.82298 48.284 8.40032 47.8534L0.316993 39.6176C-0.105664 39.187 -0.105664 38.4603 0.316993 38.0297L9.16639 28.9865L16.7214 21.2891C17.8573 20.1318 17.8573 18.2209 16.7214 17.0636L9.93243 10.1466C9.50978 9.71601 9.50978 8.98935 9.93243 8.55872L18.0158 0.32297C18.4384 -0.107657 19.1517 -0.107657 19.5743 0.32297L27.3671 8.26264C28.0539 8.96241 28.4502 9.90442 28.4502 10.9002Z" fill="#8DF31E" style="fill:#8DF31E;fill:color(display-p3 0.5529 0.9529 0.1176);fill-opacity:1;"/>
<path d="M81.48 46.9839C77.9164 46.9839 74.8619 45.7196 72.3483 43.191C69.8347 40.6625 68.5938 37.5828 68.5938 33.8872C68.5938 30.2239 69.8347 27.1118 72.3483 24.5832C74.8619 22.0546 77.8846 20.8228 81.48 20.8228C85.0754 20.8228 88.13 22.087 90.6118 24.5832C93.0936 27.1118 94.3345 30.1915 94.3345 33.8872C94.3345 37.5504 93.0936 40.6625 90.6118 43.191C88.13 45.7196 85.1073 46.9839 81.48 46.9839ZM76.071 39.5278C77.5346 41.019 79.3482 41.7647 81.48 41.7647C83.6118 41.7647 85.4254 41.019 86.8891 39.5278C88.3527 38.0366 89.0845 36.1564 89.0845 33.9196C89.0845 31.6827 88.3527 29.8025 86.8891 28.3113C85.4254 26.82 83.6118 26.0744 81.48 26.0744C79.3482 26.0744 77.5346 26.82 76.071 28.3113C74.6073 29.8025 73.8755 31.6827 73.8755 33.9196C73.8755 36.1564 74.6073 38.0366 76.071 39.5278Z" fill="#F7FFEE" style="fill:#F7FFEE;fill:color(display-p3 0.9681 1.0000 0.9333);fill-opacity:1;"/>
<path d="M109.832 20.8555C112.632 20.8555 114.891 21.7632 116.609 23.5786C118.327 25.394 119.186 27.8901 119.186 31.0671V46.3359H113.904V31.6182C113.904 29.7704 113.427 28.344 112.441 27.339C111.454 26.3341 110.118 25.8478 108.432 25.8478C106.586 25.8478 105.091 26.4313 103.945 27.5984C102.8 28.7654 102.227 30.5808 102.227 32.9797V46.3035H96.9453V21.4714H102.227V24.6484C103.85 22.1198 106.363 20.8555 109.832 20.8555Z" fill="#F7FFEE" style="fill:#F7FFEE;fill:color(display-p3 0.9681 1.0000 0.9333);fill-opacity:1;"/>
<path d="M127.329 36.1891C127.711 38.0693 128.602 39.5282 130.002 40.5331C131.402 41.5381 133.12 42.0567 135.125 42.0567C137.925 42.0567 140.025 41.0194 141.425 38.977L145.752 41.5705C143.334 45.1688 139.77 46.9842 135.061 46.9842C131.084 46.9842 127.902 45.7524 125.452 43.2886C123.002 40.8249 121.793 37.7128 121.793 33.9199C121.793 30.2242 123.002 27.1121 125.388 24.6159C127.807 22.1198 130.893 20.8555 134.647 20.8555C138.211 20.8555 141.17 22.1198 143.461 24.6808C145.752 27.2418 146.897 30.3215 146.897 33.9847C146.897 34.5358 146.834 35.2814 146.706 36.2215H127.329V36.1891ZM127.297 31.8127H141.647C141.297 29.8028 140.47 28.2792 139.197 27.2418C137.925 26.2044 136.397 25.6857 134.679 25.6857C132.738 25.6857 131.116 26.2368 129.811 27.339C128.475 28.4412 127.647 29.9325 127.297 31.8127Z" fill="#F7FFEE" style="fill:#F7FFEE;fill:color(display-p3 0.9681 1.0000 0.9333);fill-opacity:1;"/>
<path d="M163.379 20.8552C166.72 20.8552 169.584 22.1195 171.97 24.6156C174.356 27.1442 175.534 30.2239 175.534 33.9196C175.534 37.5504 174.356 40.6625 171.97 43.1911C169.584 45.7196 166.72 46.9839 163.379 46.9839C159.657 46.9839 156.825 45.59 154.852 42.7696V46.3356H149.57V11.5513H154.852V25.0047C156.825 22.2491 159.657 20.8552 163.379 20.8552ZM157.048 39.5927C158.511 41.1163 160.357 41.8619 162.552 41.8619C164.747 41.8619 166.593 41.1163 168.056 39.5927C169.52 38.1015 170.252 36.1888 170.252 33.8872C170.252 31.5855 169.52 29.7052 168.056 28.1816C166.593 26.6904 164.747 25.9123 162.552 25.9123C160.325 25.9123 158.511 26.6579 157.048 28.1816C155.584 29.7052 154.852 31.5855 154.852 33.8872C154.852 36.1888 155.584 38.1015 157.048 39.5927Z" fill="#F7FFEE" style="fill:#F7FFEE;fill:color(display-p3 0.9681 1.0000 0.9333);fill-opacity:1;"/>
<path d="M183.137 16.7383C182.469 17.4191 181.673 17.7433 180.782 17.7433C179.86 17.7433 179.096 17.4191 178.428 16.7383C177.76 16.0576 177.441 15.2471 177.441 14.3394C177.441 13.3993 177.76 12.6213 178.428 11.9405C179.064 11.2597 179.86 10.9355 180.814 10.9355C181.769 10.9355 182.564 11.2597 183.2 11.9405C183.837 12.6213 184.187 13.4317 184.187 14.3394C184.155 15.2471 183.805 16.0576 183.137 16.7383ZM178.141 46.3358V21.5037H183.423V46.3358H178.141Z" fill="#F7FFEE" style="fill:#F7FFEE;fill:color(display-p3 0.9681 1.0000 0.9333);fill-opacity:1;"/>
<path d="M200.003 26.658H193.958V38.5877C193.958 39.6251 194.181 40.3383 194.626 40.7921C195.071 41.246 195.74 41.4729 196.662 41.5378C197.553 41.6026 198.667 41.5702 200.003 41.5053V46.3356C195.962 46.8218 193.067 46.4653 191.317 45.2658C189.567 44.0663 188.676 41.8295 188.676 38.5877V26.658H186.035V21.5035H188.676V16.1222L193.958 14.5337V21.5035H200.003V26.658Z" fill="#F7FFEE" style="fill:#F7FFEE;fill:color(display-p3 0.9681 1.0000 0.9333);fill-opacity:1;"/>
</g>
<defs>
<clipPath id="clip0_0_1547">
<rect width="200" height="58" fill="white" style="fill:white;fill-opacity:1;"/>
</clipPath>
</defs>
</svg>
